<svg id="SvgjsSvg1001" width="288" height="288" xmlns="http://www.w3.org/2000/svg" version="1.1" xmlns:xlink="http://www.w3.org/1999/xlink" xmlns:svgjs="http://svgjs.com/svgjs"><defs id="SvgjsDefs1002"></defs><g id="SvgjsG1008" transform="matrix(0.9167,0,0,0.9167,12.494360022735606,12.559913205337523)"><svg xmlns="http://www.w3.org/2000/svg" width="288" height="288"><defs><linearGradient id="a"><stop offset="0" stop-color="#ffffff" class="stopColorfff svgShape"></stop><stop offset="1" stop-color="#d2d5d8" class="stopColord2d5d8 svgShape"></stop></linearGradient></defs><path fill="#830bd7" d="m37.938999,39.085999c-43.272999,43.272003 -43.378999,114.158997 -0.105988,157.432007c36.662991,36.663025 93.201992,42.25 135.920986,16.765991l76.343994,74.234985c10.506989,10.197998 27.084991,9.821045 37.116974,-0.843994c10.03302,-10.664978 9.77002,-27.445984 -0.737976,-37.643982l-75.182983,-72.864014c26.360992,-42.846985 21.007996,-100.044983 -16.028015,-137.080994c-43.27298,-43.273008 -114.054993,-43.273008 -157.327,0l0,0l0.000008,0zm31.738979,31.739014c26.10202,-26.102024 67.746033,-26.102024 93.848022,0c26.10199,26.10199 26.10199,67.745972 0,93.847961c-26.10199,26.102051 -67.746002,26.102051 -93.848022,0c-26.10199,-26.10199 -26.10199,-67.745972 0,-93.847961z" class="color92959c svgShape"></path></svg></g></svg>